<svg xmlns="http://www.w3.org/2000/svg" viewBox="0 0 16 16" shape-rendering="crispEdges">
<rect x="2" y="1" width="1" height="1" fill="#c6e8ff"/><rect x="3" y="1" width="1" height="1" fill="#c6e8ff"/><rect x="1" y="2" width="1" height="1" fill="#c6e8ff"/><rect x="2" y="2" width="1" height="1" fill="#c6e8ff"/><rect x="3" y="2" width="1" height="1" fill="#c6e8ff"/><rect x="4" y="2" width="1" height="1" fill="#c6e8ff"/><rect x="6" y="2" width="1" height="1" fill="#4ca649"/><rect x="7" y="2" width="1" height="1" fill="#71c95c"/><rect x="8" y="2" width="1" height="1" fill="#4ca649"/><rect x="5" y="3" width="1" height="1" fill="#4ca649"/><rect x="6" y="3" width="1" height="1" fill="#71c95c"/><rect x="7" y="3" width="1" height="1" fill="#71c95c"/><rect x="8" y="3" width="1" height="1" fill="#4ca649"/><rect x="9" y="3" width="1" height="1" fill="#357c3a"/><rect x="6" y="4" width="1" height="1" fill="#4ca649"/><rect x="7" y="4" width="1" height="1" fill="#845c36"/><rect x="8" y="4" width="1" height="1" fill="#357c3a"/><rect x="7" y="5" width="1" height="1" fill="#845c36"/><rect x="4" y="6" width="1" height="1" fill="#84d665"/><rect x="5" y="6" width="1" height="1" fill="#84d665"/><rect x="6" y="6" width="1" height="1" fill="#84d665"/><rect x="7" y="6" width="1" height="1" fill="#84d665"/><rect x="8" y="6" width="1" height="1" fill="#5cb84d"/><rect x="9" y="6" width="1" height="1" fill="#5cb84d"/><rect x="10" y="6" width="1" height="1" fill="#5cb84d"/><rect x="11" y="6" width="1" height="1" fill="#5cb84d"/><rect x="3" y="7" width="1" height="1" fill="#84d665"/><rect x="4" y="7" width="1" height="1" fill="#5cb84d"/><rect x="5" y="7" width="1" height="1" fill="#5cb84d"/><rect x="6" y="7" width="1" height="1" fill="#5cb84d"/><rect x="7" y="7" width="1" height="1" fill="#5cb84d"/><rect x="8" y="7" width="1" height="1" fill="#5cb84d"/><rect x="9" y="7" width="1" height="1" fill="#5cb84d"/><rect x="10" y="7" width="1" height="1" fill="#5cb84d"/><rect x="11" y="7" width="1" height="1" fill="#5cb84d"/><rect x="12" y="7" width="1" height="1" fill="#84d665"/><rect x="3" y="8" width="1" height="1" fill="#92673e"/><rect x="4" y="8" width="1" height="1" fill="#92673e"/><rect x="5" y="8" width="1" height="1" fill="#92673e"/><rect x="6" y="8" width="1" height="1" fill="#92673e"/><rect x="7" y="8" width="1" height="1" fill="#6e4a2d"/><rect x="8" y="8" width="1" height="1" fill="#6e4a2d"/><rect x="9" y="8" width="1" height="1" fill="#6e4a2d"/><rect x="10" y="8" width="1" height="1" fill="#6e4a2d"/><rect x="11" y="8" width="1" height="1" fill="#6e4a2d"/><rect x="12" y="8" width="1" height="1" fill="#92673e"/><rect x="3" y="9" width="1" height="1" fill="#92673e"/><rect x="4" y="9" width="1" height="1" fill="#6e4a2d"/><rect x="5" y="9" width="1" height="1" fill="#6e4a2d"/><rect x="6" y="9" width="1" height="1" fill="#6e4a2d"/><rect x="7" y="9" width="1" height="1" fill="#6e4a2d"/><rect x="8" y="9" width="1" height="1" fill="#6e4a2d"/><rect x="9" y="9" width="1" height="1" fill="#6e4a2d"/><rect x="10" y="9" width="1" height="1" fill="#4e321f"/><rect x="11" y="9" width="1" height="1" fill="#4e321f"/><rect x="12" y="9" width="1" height="1" fill="#92673e"/><rect x="3" y="10" width="1" height="1" fill="#92673e"/><rect x="4" y="10" width="1" height="1" fill="#6e4a2d"/><rect x="5" y="10" width="1" height="1" fill="#6e4a2d"/><rect x="6" y="10" width="1" height="1" fill="#6e4a2d"/><rect x="7" y="10" width="1" height="1" fill="#6e4a2d"/><rect x="8" y="10" width="1" height="1" fill="#6e4a2d"/><rect x="9" y="10" width="1" height="1" fill="#6e4a2d"/><rect x="10" y="10" width="1" height="1" fill="#4e321f"/><rect x="11" y="10" width="1" height="1" fill="#4e321f"/><rect x="12" y="10" width="1" height="1" fill="#92673e"/><rect x="5" y="11" width="1" height="1" fill="#6e4a2d"/><rect x="6" y="11" width="1" height="1" fill="#6e4a2d"/><rect x="7" y="11" width="1" height="1" fill="#4e321f"/><rect x="8" y="11" width="1" height="1" fill="#4e321f"/><rect x="9" y="11" width="1" height="1" fill="#6e4a2d"/><rect x="10" y="11" width="1" height="1" fill="#6e4a2d"/><rect x="6" y="12" width="1" height="1" fill="#4e321f"/><rect x="7" y="12" width="1" height="1" fill="#4e321f"/><rect x="8" y="12" width="1" height="1" fill="#4e321f"/><rect x="9" y="12" width="1" height="1" fill="#4e321f"/><rect x="7" y="13" width="1" height="1" fill="#4e321f"/><rect x="8" y="13" width="1" height="1" fill="#4e321f"/>
</svg>
